# xmcd
#
# Track frame offsets: 
#        150
#        11602
#        22800
#        34927
#        46525
#        60155
#        70820
#        83705
#        96430
#        109227
#        121917
#        132312
#        143250
#        155545
#        166602
#        178862
#        189135
#        201290
#        214550
#        225200
#        233705
#        246232
#        257847
#        268880
#        279407
#        290880
#        303805
#        314760
#        326875
#        338625
#
# Disc length: 4653 seconds
#
# Revision: 2
# Processed by: cddbd v1.5.2PL0 Copyright (c) Steve Scherf et al.
# Submitted via: ExactAudioCopyFreeDBPlugin 1.0
#
DISCID=9c122b1e
DTITLE=Various Artist - A Shot in the Dark:  Tennessee Jive - Country
DTITLE=on Nashville Independent Labels, 1945-1955 [Bear Family box se
DTITLE=t]
DYEAR=2000
DGENRE=Country
TTITLE0=Ricky Riddle and Hal Bradley's Band - Boogie Woogie Tennessee
TTITLE1=Billy Wallace - Dog Hauled Around
TTITLE2=Billy Wallace - You Got Some Explaining to Do
TTITLE3=Jack Hardy and the Ranch Boys - Oh Babe
TTITLE4=Bob Williams - Morning after Blues
TTITLE5=Bob Williams - Waiting for the Tide to Change
TTITLE6=Wes Holly - Shufflin' Shoes Blues
TTITLE7=Mississippi Slim - Beer Drinkin' Blues
TTITLE8=Bob Williams, Bill Russell and Dick Stratton - Crackers, Cheese 
TTITLE8=and Beer
TTITLE9=Peggy Carroll and Billy Wilson - Love is Just a Sometimes Thing
TTITLE10=Bob Williams - Pickup Truck
TTITLE11=Bob Williams - Hot Rod Race No. 3
TTITLE12=Helen Carter - I'm All Broke Out with Love
TTITLE13=Del Wood - Down Yonder
TTITLE14=Randy Hughes - Easy Monthly Payment Blues
TTITLE15=Randy Hughes - No Trespassing
TTITLE16=Helen Carter and Bob Eaton - As Long as You Believe in Me Littl
TTITLE16=e Darling
TTITLE17=Carl Runner - Intoxicated Harmony
TTITLE18=Randy Hughes - Birthday Cake
TTITLE19=Tiny Bennett and Blackie Bennett's Band - Boogie Woogie Plowboy
TTITLE20=Bob Pettus and Blackie Bennet's Band - I've Shed a Million Tear
TTITLE20=s
TTITLE21=Dick Stratton and the Night Owls - Just Wait and See
TTITLE22=Kirk McGee - Rambler's Blues
TTITLE23=Kirk McGee - It's Too Late to Change Your Mind
TTITLE24=Randy Hughes - Talking in Your Sleep
TTITLE25=Randy Hughes - My Little Country Rose
TTITLE26=Lee Bond - Uh Huh Honey
TTITLE27=Lee Bond - You've Been Crying Sweetheart
TTITLE28=Johnny Rowland - With a Heart Full of Misery
TTITLE29=Johnny Rowland - Where the Bright Lights Go
EXTD=Volume #3 of a 8-CD Box Set -BCD 15854
EXTT0=
EXTT1=
EXTT2=
EXTT3=
EXTT4=
EXTT5=
EXTT6=
EXTT7=
EXTT8=
EXTT9=
EXTT10=
EXTT11=
EXTT12=
EXTT13=
EXTT14=
EXTT15=
EXTT16=
EXTT17=
EXTT18=
EXTT19=
EXTT20=
EXTT21=
EXTT22=
EXTT23=
EXTT24=
EXTT25=
EXTT26=
EXTT27=
EXTT28=
EXTT29=
PLAYORDER=
